<?xml version="1.0" encoding="utf-8"?>
<!-- Generator: Adobe Illustrator 27.0.0, SVG Export Plug-In . SVG Version: 6.00 Build 0)  -->
<svg version="1.1" id="Layer_1" xmlns="http://www.w3.org/2000/svg" xmlns:xlink="http://www.w3.org/1999/xlink" x="0px" y="0px"
	 viewBox="0 0 266.9 124.65" enable-background="new 0 0 266.9 124.65" xml:space="preserve">
<g>
	<path fill="#55B948" d="M45.66,72.49c-1.87,0.32-0.77,1.51-0.48,2.15c1.74,3.77,3.42,7.6,5.47,11.2c2.19,3.85,6.06,5.06,10.21,5.18
		c4.82,0.14,9.66-0.12,14.48,0c4.37,0.11,7.42-1.85,9.17-5.63c1.95-4.21,4.63-8.08,5.9-12.62c1.12-4.02-0.01-5.92-4.5-5.81
		c-7.99,0.2-15.99,0.1-23.98,0.07c-1.99-0.01-3.99-0.14-5.97-0.35c-5.08-0.54-9.56-2.25-11.22-7.63c-1.58-5.11,0.65-9.09,4.57-12.26
		c1.3-1.05,2.08-1.83,0.62-3.48c-6.44-7.3-7.61-15.57-2.93-24.01C52.38,9.6,61.89,7.78,71.95,7.94C75.42,8,78.9,8.68,82.34,9.3
		c3.74,0.68,7.23,0.51,10.63-1.4c3.93-2.21,6.69-0.54,8.56,3.07c1.82,3.53,0.78,6.1-2.95,7.5c-1.67,0.63-3.09,1.2-2.04,3.5
		c5.64,12.33-3.95,24.2-17.35,26.78c-5.6,1.08-11.26,1.13-16.89,0.23c-2.25-0.36-4.72-0.73-5.28,2.08
		c-0.65,3.26,2.11,3.89,4.46,3.96c8.82,0.26,17.64,0.37,26.46,0.43c13.74,0.09,19.34,8.8,13.6,21.22c-2.23,4.83-4.32,9.73-6.67,14.5
		c-3.71,7.52-9.66,11.67-18.27,11.57c-5.66-0.06-11.32-0.03-16.99-0.05c-10.13-0.04-16.9-5.08-20.98-14.12
		c-3.62-8.04-7.39-16.02-10.81-24.14c-2.26-5.35-6.05-7.49-11.71-7.37c-6.68,0.14-9.78-1.94-9.59-5.9c0.18-3.77,3.27-5.07,9.51-5.71
		c11.68-1.21,18.6,4.07,22.42,14.65c1.3,3.59,3.06,7.01,4.76,10.43c0.43,0.87,0.33,2.81,2.34,1.97L45.66,72.49z M71.1,37.95
		c6.39,0.06,10.56-3.65,10.56-9.39c-0.01-5.47-4.1-9-10.38-8.97c-6.53,0.04-10.55,3.63-10.54,9.44
		C60.73,34.57,64.59,37.89,71.1,37.95z"/>
	<path fill="#55B948" d="M51.51,106.6c4.05-0.11,7.43,3.03,7.53,7c0.11,4.25-3.19,7.77-7.28,7.76c-4.4-0.01-7.27-2.69-7.45-6.97
		C44.12,109.97,47.13,106.72,51.51,106.6z"/>
	<path fill="#55B948" d="M88.29,113.89c-0.01,4.36-3.18,7.45-7.63,7.41c-4.46-0.03-7.22-3.05-7.12-7.78c0.09-4.24,3-6.92,7.47-6.89
		C85.08,106.67,88.3,109.87,88.29,113.89z"/>
	<path fill="#55B948" d="M45.56,72.51c0.08-0.05,0.17-0.11,0.25-0.16c-0.06,0.05-0.11,0.1-0.16,0.14
		C45.66,72.49,45.56,72.51,45.56,72.51z"/>
	<g>
		<path fill="#F15F22" d="M109.85,100.69c0-1.07,0.07-2.21,0.27-3.29l2.61-16.43c1.74-10.86,10.79-17.77,23.8-17.77
			c11.93,0,18.84,4.83,18.84,13.41c0,2.82-0.67,6.24-1.94,9.79h-16.56c0.4-1.68,1.14-5.83,1.14-7.04c0-1.74-1.07-2.75-3.29-2.75
			c-2.75,0-4.29,1.41-4.76,4.36l-2.62,16.43c-0.07,0.54-0.13,0.94-0.13,1.41c0,2.01,1.21,3.02,3.49,3.02c2.61,0,4.09-1.27,4.43-3.62
			c0.27-1.88,0.67-4.22,0.8-6.44h16.63c0.07,1.68-0.07,3.75-0.34,6.03c-0.54,11.46-11.13,17.37-23.87,17.37
			C116.82,115.17,109.85,109.61,109.85,100.69z"/>
		<path fill="#F15F22" d="M193.59,104.71c0,2.28,0.4,4.49,1.14,6.44l-15.35,3.96c-0.94-1.41-1.48-3.49-1.68-5.77
			c-2.68,3.55-6.64,5.7-11.4,5.7c-6.64,0-10.59-3.82-10.59-10.59c0-1.07,0.07-2.15,0.33-3.75l1.68-10.59
			c1.61-9.52,9.72-15.89,21.92-15.89c7.17,0,13.14,1.34,17.83,4.29l-3.55,22.12C193.73,101.97,193.59,103.37,193.59,104.71z
			 M177.7,99.35l2.08-13.34c-0.4-0.4-1.07-0.67-2.01-0.67c-1.74,0-3.02,1.34-3.35,3.62l-1.74,10.66c-0.07,0.4-0.07,0.8-0.07,1.07
			c0,1.27,0.6,2.08,1.74,2.08C175.76,102.77,177.1,101.36,177.7,99.35z"/>
		<path fill="#F15F22" d="M229.4,74.21l-1.81,14.55c-5.63,0-8.92,1.81-10.39,5.77l-3.08,19.44h-16.49l3.96-25.21
			c0.2-1.34,0.33-2.75,0.33-4.02c0-2.35-0.33-4.49-1.01-6.37l15.29-4.16c1.07,1.81,1.68,4.42,1.74,7.31
			C220.54,76.96,224.5,74.21,229.4,74.21z"/>
		<path fill="#F15F22" d="M249.78,98.41c-0.47,2.95,1.07,4.63,4.22,4.63c1.61,0,3.02-0.2,4.76-0.6l-1.81,11.4
			c-2.62,0.87-5.7,1.27-8.78,1.27c-10.79,0-16.63-5.56-15.29-14.42l2.28-14.21h-5.3l1.21-10.06l6.77-1.07l4.56-8.72h12.4l-1.41,8.72
			h9.66l-1.74,11.13h-9.66L249.78,98.41z"/>
	</g>
	<g>
		<path fill="#55B948" d="M104.58,37.9c0-0.94,0.13-2.01,0.2-2.82l1.81-11.26c1.41-9.05,9.59-14.35,20.78-14.35
			c11.13,0,17.77,4.69,17.77,12.61c0,0.94-0.13,2.01-0.27,2.82l-1.74,11.26c-1.47,9.05-9.59,14.28-20.85,14.28
			C111.22,50.44,104.58,45.81,104.58,37.9z M126.51,35.89l1.74-11.06c0.07-0.67,0.2-1.27,0.2-1.81c0-1.27-0.74-2.01-2.08-2.01
			c-1.68,0-2.82,1.07-3.15,3.08l-1.74,11.06c-0.13,0.67-0.2,1.27-0.2,1.74c0,1.34,0.74,2.08,2.08,2.08
			C125.03,38.97,126.1,37.9,126.51,35.89z"/>
	</g>
</g>
</svg>
